<?xml version="1.0" standalone="no"?>
<!DOCTYPE svg PUBLIC "-//W3C//DTD SVG 20010904//EN"
 "http://www.w3.org/TR/2001/REC-SVG-20010904/DTD/svg10.dtd">
<svg version="1.0" xmlns="http://www.w3.org/2000/svg"
 width="1755.000000pt" height="1005.000000pt" viewBox="0 0 1755.000000 1005.000000"
 preserveAspectRatio="xMidYMid meet">

<g transform="translate(0.000000,1005.000000) scale(0.100000,-0.100000)"
fill="#000000" stroke="none">
<path d="M6851 9926 c-24 -26 -51 -103 -51 -148 l0 -28 -2885 0 -2885 0 0
-3495 0 -3496 -30 16 c-17 9 -30 13 -30 10 0 -3 13 -32 30 -65 l30 -58 -298
-4 c-285 -3 -299 -4 -347 -26 -121 -56 -171 -151 -130 -250 21 -50 50 -79 110
-110 l50 -27 308 -3 307 -3 0 -1030 0 -1029 3620 0 3620 0 0 46 c0 37 3 45 15
40 8 -3 22 -9 31 -12 11 -5 7 10 -15 54 -17 34 -31 64 -31 67 0 3 99 5 220 5
239 0 264 5 317 62 26 27 53 88 53 118 0 26 -1 26 72 -11 35 -18 59 -25 55
-17 -21 52 -110 48 977 48 l996 0 2 618 3 617 3168 3 3167 2 0 2620 0 2620
-286 0 c-250 0 -285 2 -280 15 3 8 9 22 12 30 4 11 -6 8 -37 -9 -63 -34 -89
-41 -89 -22 0 25 -51 76 -102 102 -112 57 -177 66 -505 71 l-303 5 0 1244 0
1244 -4125 0 -4126 0 11 21 c7 11 10 23 7 25 -3 3 -32 -9 -66 -27 -35 -17 -61
-32 -59 -34 2 -1 32 -17 67 -35 66 -33 65 -33 44 18 -4 9 822 12 4111 12
l4116 0 0 -1235 0 -1235 -395 0 -395 0 30 60 c30 59 30 69 0 50 -13 -8 -16 35
-20 358 l-5 367 -3042 3 -3042 2 -11 40 c-13 50 -60 104 -114 133 -38 21 -56
22 -283 25 l-243 3 30 59 c17 33 30 62 30 65 0 3 -13 -1 -30 -10 l-30 -16 0
261 0 260 -277 2 -277 3 -7 32 c-10 49 -41 95 -88 128 l-43 30 -433 0 -433 0
-44 -30 c-43 -30 -82 -92 -93 -147 l-5 -28 -210 0 -210 0 0 -256 0 -256 -25
16 c-13 9 -27 16 -30 16 -3 0 8 -27 25 -60 16 -33 30 -61 30 -64 0 -2 -87 -6
-192 -8 -182 -3 -195 -4 -231 -26 -111 -70 -125 -257 -25 -349 40 -38 73 -43
264 -43 l184 0 0 -170 0 -170 410 0 410 0 0 -106 0 -106 -25 16 c-13 9 -27 16
-30 16 -3 0 8 -27 25 -60 16 -33 30 -61 30 -64 0 -2 -42 -5 -94 -8 -84 -3 -97
-7 -131 -32 -40 -31 -74 -94 -75 -138 l0 -28 -877 -2 -878 -3 -3 -322 -2 -323
-645 0 -645 0 0 -989 0 -988 -31 -7 c-46 -9 -114 -81 -129 -136 -25 -94 13
-206 87 -252 36 -22 49 -23 226 -26 l187 -4 0 -315 c0 -276 -2 -314 -15 -309
-8 3 -22 9 -31 12 -11 5 -7 -10 15 -54 17 -34 31 -64 31 -67 0 -3 -132 -5
-294 -5 -318 0 -341 -3 -418 -57 -53 -36 -92 -118 -83 -172 14 -85 96 -158
200 -179 36 -7 162 -12 327 -12 l268 0 0 -175 0 -175 -960 0 -961 0 11 21 c18
32 7 33 -49 4 -29 -14 -56 -23 -61 -20 -4 3 -12 19 -15 36 -10 44 -82 112
-141 134 -43 17 -87 19 -341 23 -161 2 -293 5 -293 8 0 2 14 32 30 65 l31 60
-31 -16 -30 -16 0 3486 0 3485 2875 0 2875 0 0 -34 c0 -45 26 -115 52 -143 19
-21 31 -23 111 -23 l90 0 -6 -107 c-4 -58 -7 -128 -7 -155 0 -49 0 -49 -22
-34 -38 27 -39 18 -6 -49 18 -36 35 -65 38 -65 5 0 70 115 70 125 0 3 -13 -1
-30 -10 l-30 -16 0 49 c0 27 3 97 7 155 l6 107 81 0 c97 0 117 11 143 77 38
101 16 289 -40 328 -17 12 -58 15 -202 15 -178 0 -182 0 -204 -24z m411 -26
c10 -14 24 -56 30 -93 13 -80 -1 -188 -30 -227 -19 -25 -19 -25 -200 -28 -173
-2 -182 -2 -200 19 -56 59 -56 279 0 338 18 21 27 21 200 19 181 -3 181 -3
200 -28z m200 -820 c21 -6 51 -22 68 -37 97 -81 83 -245 -26 -309 l-41 -24
-418 0 c-412 0 -418 0 -457 22 -128 72 -119 278 16 339 38 17 72 19 431 19
238 0 404 -4 427 -10z m688 -441 l0 -251 -25 16 c-13 9 -27 16 -30 16 -3 0 8
-27 25 -60 16 -33 30 -61 30 -64 0 -2 -109 -6 -242 -8 -214 -3 -247 -5 -278
-22 -79 -42 -120 -105 -120 -185 0 -63 13 -97 53 -140 69 -72 56 -71 597 -71
l485 0 51 24 c58 27 96 71 115 134 l12 42 3031 -2 3031 -3 0 -355 c0 -231 -3
-354 -10 -353 -5 1 -18 5 -28 9 -16 6 -14 -3 12 -55 l31 -61 -205 0 c-113 0
-205 4 -205 9 0 5 12 30 26 55 29 51 27 64 -5 47 -20 -11 -21 -10 -23 156 l-3
168 -4112 3 -4113 2 0 90 0 90 100 0 c113 0 139 9 187 64 42 47 57 97 50 169
-6 70 -42 129 -97 162 -31 18 -55 20 -227 23 l-193 4 30 58 c17 33 30 62 30
65 0 3 -13 -1 -30 -10 l-30 -16 0 246 0 245 204 0 203 0 7 -40 c7 -47 65 -116
113 -137 41 -17 845 -19 890 -2 49 18 103 79 119 136 l15 53 265 0 264 0 0
-251z m-1698 -379 c43 -12 91 -63 108 -115 18 -55 8 -137 -22 -183 -48 -72
-48 -72 -481 -72 -383 0 -384 0 -418 23 -122 82 -114 280 15 338 38 17 71 19
401 19 214 0 375 -4 397 -10z m2202 -1 c57 -16 123 -83 138 -141 21 -83 -23
-171 -107 -209 -37 -17 -76 -19 -523 -19 -474 0 -483 0 -528 22 -32 15 -56 36
-75 67 -69 107 -14 244 111 279 50 14 933 15 984 1z m-2428 -489 l2 -95 4111
-3 c3351 -2 4113 -4 4117 -15 2 -7 3 -79 2 -160 l-3 -147 -27 15 c-16 7 -28
12 -28 9 0 -2 13 -31 30 -64 l30 -59 -48 -5 c-245 -29 -382 -99 -382 -196 0
-97 141 -173 357 -195 l72 -7 -29 -59 c-35 -69 -36 -73 -11 -59 37 19 42 12
39 -47 l-3 -58 -2522 -3 -2523 -2 -2 197 -3 198 -946 3 -947 2 -10 43 c-13 51
-46 102 -85 131 -27 20 -43 21 -278 24 l-249 3 30 59 c17 33 30 62 30 65 0 3
-13 -1 -30 -10 l-30 -16 0 116 0 115 -410 0 -410 0 0 160 0 161 78 -3 77 -3 1
-95z m10168 -568 c278 -77 272 -237 -11 -310 -62 -16 -150 -17 -1058 -17 -908
0 -996 1 -1058 17 -131 34 -217 95 -217 154 0 82 123 152 308 174 37 4 492 7
1012 6 940 -2 945 -2 1024 -24z m-8993 -25 c92 -62 115 -204 47 -300 -40 -56
-47 -57 -415 -57 -386 0 -381 -1 -423 84 -52 108 -12 248 80 285 15 6 161 10
351 10 323 1 326 1 360 -22z m9291 -168 c63 -32 62 -33 41 19 -4 9 55 12 276
12 l281 0 0 -2600 0 -2600 -3165 0 -3165 0 0 395 0 395 288 0 c337 0 366 5
442 76 84 79 90 170 14 253 -19 21 -58 49 -87 62 -50 23 -61 24 -354 27 l-303
3 30 59 c35 70 36 74 11 60 -11 -5 -25 -10 -30 -10 -8 0 -10 103 -9 343 l3
342 189 2 c177 2 191 4 222 25 42 29 81 89 89 139 l7 39 161 -2 162 -3 3 -57
3 -58 119 0 c66 0 120 -3 120 -6 0 -3 -5 -14 -11 -26 -17 -31 -5 -31 59 1 l59
30 6 -40 c7 -50 48 -114 90 -139 30 -19 52 -20 415 -20 410 0 412 0 458 52
107 117 61 319 -81 357 -53 14 -696 15 -747 1 -72 -20 -137 -102 -138 -173 l0
-27 -61 31 c-34 16 -63 28 -66 26 -2 -3 0 -15 7 -26 11 -21 9 -21 -99 -21
l-110 0 -3 58 -3 57 -172 3 -172 2 -15 53 c-31 106 -102 147 -256 147 l-70 0
0 640 0 640 2315 0 2315 0 0 595 c0 414 3 595 11 595 6 0 19 -5 30 -10 25 -14
24 -10 -11 60 l-30 60 234 0 c129 0 269 5 311 11 161 22 272 76 305 146 8 18
16 33 18 33 1 0 30 -14 64 -31z m-10121 -50 c8 -55 53 -124 93 -143 29 -14 81
-16 376 -16 328 0 344 1 376 21 40 25 69 69 84 132 l12 47 937 -2 936 -3 0
-185 0 -185 -1387 -3 -1388 -2 0 -125 0 -125 -887 2 -888 3 -3 313 -2 312 867
-2 868 -3 6 -36z m8289 -169 c-35 -70 -36 -74 -11 -60 41 21 42 17 39 -172
l-3 -183 -2737 -3 -2738 -2 0 115 0 115 2533 2 2532 3 3 68 c2 37 5 67 8 67 3
0 14 -5 25 -10 25 -14 24 -10 -11 60 l-30 60 210 0 210 0 -30 -60z m430 0
c-35 -70 -36 -74 -11 -60 11 5 22 10 25 10 3 0 6 -191 6 -425 l0 -425 -2950 0
-2950 0 0 230 0 230 2748 2 2747 3 0 193 c0 105 4 192 8 192 5 0 17 -5 28 -10
25 -14 24 -10 -11 60 l-30 60 210 0 210 0 -30 -60z m430 0 c-35 -70 -36 -74
-11 -60 11 5 22 10 25 10 3 0 6 -263 6 -585 l0 -585 -2315 0 -2315 0 0 -650 0
-650 -75 0 -75 0 31 61 c32 64 32 63 -18 42 -10 -4 -13 71 -13 356 l0 361
-479 0 -478 0 -6 36 c-11 68 -73 133 -148 154 -19 6 -127 10 -242 10 l-207 0
30 60 c35 70 36 74 11 60 -11 -5 -22 -10 -25 -10 -3 0 -6 106 -6 235 l0 235
2960 0 2960 0 0 435 c0 301 3 435 11 435 6 0 19 -5 30 -10 25 -14 24 -10 -11
60 l-30 60 210 0 210 0 -30 -60z m-6332 -302 l-3 -113 -1377 -3 -1378 -2 0
115 0 115 1380 0 1381 0 -3 -112z m-4578 -588 l0 -451 -21 11 c-32 17 -33 7
-5 -49 14 -28 26 -55 26 -61 0 -6 -65 -10 -188 -10 -184 0 -188 0 -225 -25
-39 -27 -63 -64 -82 -130 l-12 -40 -222 -3 -221 -2 0 -321 c0 -282 -2 -320
-15 -315 -8 3 -22 9 -31 12 -11 5 -7 -10 15 -54 17 -34 31 -64 31 -67 0 -3
-72 -5 -160 -5 l-160 0 0 980 0 980 635 0 635 0 0 -450z m1800 -560 l0 -1010
-75 0 c-41 0 -75 2 -75 5 0 3 14 33 31 67 22 44 26 59 15 54 -9 -3 -23 -9 -31
-12 -13 -5 -15 37 -15 345 l0 351 -559 0 -559 0 -7 39 c-8 46 -45 108 -83 136
-24 18 -45 20 -212 23 -102 1 -191 5 -198 7 -9 3 -4 22 19 66 22 45 26 60 15
55 -9 -3 -23 -9 -31 -12 -13 -5 -15 48 -15 445 l0 451 890 0 890 0 0 -1010z
m2780 780 l0 -230 -720 0 -720 0 0 -845 0 -845 -90 0 c-128 0 -182 -25 -221
-102 -42 -82 -33 -185 23 -253 41 -48 82 -65 163 -65 l65 0 0 -660 0 -660 188
0 187 0 -3 -160 c-3 -158 -3 -160 -23 -149 -32 16 -33 5 -5 -50 14 -28 26 -52
26 -55 0 -2 -123 -5 -273 -7 l-273 -4 -59 -30 c-32 -16 -72 -47 -89 -68 -28
-36 -31 -45 -31 -112 0 -67 3 -76 31 -112 17 -21 55 -50 84 -65 l52 -28 274 0
c207 0 275 -3 281 -12 4 -7 9 -55 11 -107 5 -101 8 -96 -44 -75 -11 5 -7 -10
15 -54 17 -34 31 -64 31 -67 0 -3 -125 -5 -277 -5 -270 0 -279 -1 -328 -24
-60 -28 -110 -81 -126 -136 l-12 -40 -1416 2 -1416 3 -3 678 -2 677 -405 0
-405 0 0 174 0 174 298 4 c285 3 299 4 347 26 124 57 176 163 126 260 -23 46
-53 73 -111 103 -44 23 -52 24 -352 27 -193 2 -308 7 -308 13 0 5 12 32 26 60
28 56 27 66 -5 49 l-21 -11 0 316 0 315 163 0 c189 0 229 9 277 59 86 90 75
263 -21 332 -33 23 -42 24 -226 27 -117 2 -193 7 -193 13 0 5 12 32 26 60 28
56 27 66 -5 49 l-21 -11 0 311 0 310 213 0 213 0 13 -51 c17 -63 70 -122 126
-138 22 -6 88 -11 148 -11 l107 0 0 -145 0 -145 240 0 240 0 0 -85 0 -86 -30
16 c-16 9 -30 13 -30 10 0 -3 14 -32 30 -65 l30 -60 -167 0 c-93 0 -185 -5
-205 -10 -23 -7 -51 -27 -77 -56 -77 -88 -76 -216 3 -302 43 -48 63 -52 261
-52 l185 0 0 -175 0 -175 205 0 205 0 0 -111 c0 -95 -2 -110 -15 -105 -8 3
-22 9 -31 12 -11 5 -7 -10 15 -54 17 -34 31 -64 31 -66 0 -3 -103 -6 -228 -8
-224 -3 -229 -3 -264 -28 -133 -91 -125 -288 15 -363 42 -22 45 -22 487 -22
441 0 445 0 487 22 60 32 113 109 113 164 0 24 0 24 72 -12 44 -22 59 -26 54
-15 -3 9 -9 23 -12 31 -5 13 18 15 175 15 l181 0 0 430 0 430 63 0 c85 0 124
13 169 57 84 82 85 222 4 311 -38 43 -69 52 -176 52 l-100 0 0 1010 0 1010
1380 0 1380 0 0 -230z m-2 -487 c2 -241 2 -244 -39 -223 -25 14 -24 10 11 -60
l30 -60 -207 0 c-119 0 -225 -5 -248 -11 -57 -16 -133 -95 -141 -149 l-7 -40
-251 -2 -251 -3 -3 -387 c-1 -214 -5 -388 -8 -388 -3 0 -14 5 -25 10 -25 14
-24 10 11 -60 l30 -60 -160 0 -160 0 0 835 0 835 708 -2 707 -3 3 -232z
m-4151 -333 c85 -51 106 -200 41 -293 -43 -61 -48 -62 -443 -64 -378 -1 -399
1 -449 45 -82 73 -69 248 23 309 34 23 36 23 415 23 361 0 383 -1 413 -20z
m4614 -42 c101 -34 151 -126 125 -229 -15 -57 -44 -92 -98 -120 -35 -18 -64
-19 -483 -19 -425 0 -448 1 -485 20 -62 32 -93 81 -98 155 -6 95 34 157 123
192 42 16 868 18 916 1z m-3411 -478 c0 -187 -4 -340 -8 -340 -4 0 -13 5 -20
12 -24 24 -24 -3 2 -51 14 -28 26 -55 26 -61 0 -6 -67 -10 -187 -10 -169 0
-191 -2 -220 -20 -102 -62 -125 -236 -45 -332 54 -64 76 -68 385 -68 l277 0 0
-420 0 -420 -170 0 c-170 0 -171 0 -160 21 7 11 9 23 7 26 -3 2 -32 -10 -66
-26 l-61 -31 0 25 c0 36 -53 116 -96 145 -37 25 -41 25 -266 28 -125 2 -228 5
-228 8 0 2 14 32 31 66 18 35 25 59 17 55 -52 -21 -48 -29 -48 102 l0 121
-205 0 -205 0 0 165 0 165 188 0 189 0 40 29 c105 76 113 261 14 344 -47 39
-90 47 -268 47 -90 0 -163 2 -163 5 0 3 14 33 30 66 l31 60 -31 -16 -30 -16 0
96 0 95 -240 0 -240 0 0 134 0 134 243 4 c233 3 243 4 280 26 40 26 81 87 92
140 l7 32 549 0 549 0 0 -340z m2355 243 c16 -55 47 -97 93 -125 32 -20 54
-24 167 -28 l130 -5 3 -157 3 -158 159 0 160 0 0 -95 0 -96 -30 16 c-16 9 -30
13 -30 10 0 -3 13 -32 30 -64 l29 -59 -182 -4 c-203 -4 -222 -9 -276 -75 -40
-49 -55 -119 -40 -191 13 -65 76 -138 127 -148 l32 -6 0 -189 0 -189 -452 -2
-453 -3 -3 -487 -2 -488 -175 0 -175 0 0 650 0 650 290 0 c322 0 333 2 387 63
71 81 71 213 0 294 -45 51 -81 63 -192 63 l-95 0 30 60 c35 70 36 74 11 60
-11 -5 -24 -10 -30 -10 -12 0 -16 742 -4 754 4 3 112 5 241 4 l235 -3 12 -42z
m2145 -303 l0 -351 -21 11 c-32 17 -33 7 -5 -49 14 -28 26 -52 26 -55 0 -2
-82 -6 -182 -8 -203 -4 -227 -11 -271 -70 -63 -85 -63 -201 0 -286 43 -58 62
-62 268 -62 l185 0 0 -345 c0 -190 -3 -345 -6 -345 -3 0 -14 5 -25 10 -25 14
-24 10 11 -60 l30 -59 -303 -3 c-291 -3 -304 -4 -352 -26 -90 -42 -145 -111
-145 -184 1 -52 34 -114 81 -147 76 -56 113 -61 426 -61 l283 0 0 -395 0 -395
-959 0 -959 0 -7 29 c-11 53 -60 107 -122 137 l-58 29 -277 4 -277 3 30 60
c18 36 25 59 17 55 -52 -21 -48 -32 -48 142 l0 161 51 0 c54 0 52 3 32 -48 -4
-8 20 -1 55 17 34 17 64 31 67 31 3 0 5 -11 5 -25 0 -64 77 -155 147 -174 54
-15 859 -15 904 0 183 62 194 320 17 394 -26 10 -71 15 -153 15 l-115 0 31 61
c32 65 33 77 1 60 -12 -6 -23 -11 -26 -11 -3 0 -6 63 -6 140 l0 140 203 2 202
3 3 388 2 387 101 0 c106 0 136 9 176 52 71 75 71 231 0 306 -47 51 -70 56
-264 60 -101 2 -183 6 -183 8 0 3 14 32 30 65 l31 60 -31 -16 -30 -16 0 106 0
105 -160 0 -160 0 0 150 0 149 328 3 329 3 42 28 c44 29 77 74 87 117 3 14 7
31 10 38 3 9 105 12 469 12 l465 0 0 -350z m-6660 -372 c122 -83 96 -310 -39
-348 -21 -6 -184 -10 -381 -10 -315 0 -349 2 -386 19 -125 57 -136 264 -18
341 27 19 50 20 410 20 379 0 381 0 414 -22z m1312 -30 c15 -10 39 -34 55 -54
23 -31 28 -48 31 -108 2 -59 -1 -77 -20 -111 -13 -22 -39 -50 -57 -62 -34 -23
-35 -23 -417 -23 l-383 0 -36 31 c-51 45 -68 84 -69 154 0 93 45 161 123 186
14 4 188 7 386 6 323 -2 364 -4 387 -19z m1298 -54 c89 -96 66 -260 -45 -314
-42 -20 -54 -21 -407 -18 -405 3 -388 1 -445 74 -23 31 -28 48 -31 108 -2 59
1 77 20 111 13 22 39 50 58 63 l34 23 389 -3 388 -3 39 -41z m4473 -43 c46
-28 77 -86 84 -155 8 -89 -59 -189 -132 -196 -11 -1 -182 -2 -381 -1 -357 1
-361 1 -395 24 -127 84 -93 312 52 347 19 5 192 8 384 7 349 -2 350 -2 388
-26z m-1478 8 c139 -38 172 -244 55 -343 l-32 -26 -385 0 c-426 0 -416 -1
-462 65 -46 68 -49 153 -8 228 24 43 58 68 107 78 60 12 681 10 725 -2z
m-1367 -63 c120 -63 137 -256 29 -337 l-32 -24 -375 -3 c-267 -2 -382 1 -402
9 -58 24 -108 107 -108 179 0 72 47 151 105 176 45 20 745 20 783 0z m4552
-63 c53 -33 84 -94 84 -168 -1 -70 -18 -109 -69 -154 l-36 -31 -383 0 c-382 0
-383 0 -417 23 -124 83 -95 314 43 347 18 5 193 8 388 7 347 -2 356 -3 390
-24z m-3560 -268 c0 -3 -13 -32 -30 -65 -16 -33 -30 -62 -30 -65 0 -3 14 1 30
10 l30 16 0 -246 0 -245 -215 0 -215 0 0 -285 0 -285 -215 0 c-159 0 -224 -4
-248 -14 -59 -24 -127 -109 -127 -158 0 -24 -10 -23 -72 7 -28 14 -53 23 -56
21 -2 -2 1 -14 8 -25 10 -20 8 -21 -40 -21 l-50 0 2 478 3 477 453 3 452 2 0
193 c0 107 3 197 7 200 7 8 313 10 313 2z m168 -377 l2 -378 -205 0 -205 0 0
-150 c0 -82 -3 -150 -6 -150 -3 0 -14 5 -25 10 -25 14 -24 10 11 -60 l30 -60
-90 0 -90 0 0 275 0 275 215 0 215 0 0 255 0 256 21 -11 c32 -17 33 -7 5 49
-14 28 -26 55 -26 61 0 7 26 10 73 8 l72 -3 3 -377z m-3598 -238 c50 -26 91
-86 98 -145 10 -89 -51 -181 -135 -204 -51 -15 -835 -15 -886 0 -155 43 -183
260 -44 344 l42 25 443 0 c425 0 444 -1 482 -20z m-1567 -30 c118 -44 169
-152 114 -244 -28 -45 -94 -92 -146 -103 -20 -5 -301 -8 -626 -8 l-590 0 -53
24 c-62 28 -107 75 -123 131 -11 35 -10 47 7 88 21 50 85 103 148 121 17 5
297 10 623 10 569 1 594 0 646 -19z m7090 -183 c55 -26 114 -83 128 -124 23
-72 -17 -151 -102 -198 l-54 -30 -620 0 -620 0 -49 25 c-136 70 -154 214 -36
295 77 54 85 54 725 52 541 -2 593 -3 628 -20z m-2048 -376 c147 -66 146 -277
-1 -342 -41 -19 -65 -20 -482 -17 l-438 3 -36 24 c-61 42 -83 85 -83 161 0 56
4 73 28 109 54 81 51 81 542 81 396 0 433 -2 470 -19z m-7867 -20 c62 -28 107
-76 121 -129 21 -77 -19 -145 -111 -191 l-61 -31 -592 0 c-651 0 -643 -1 -719
62 -127 105 -61 268 124 308 19 5 294 7 610 7 l575 -2 53 -24z m212 -201 c33
-16 62 -30 65 -30 3 0 -1 14 -10 30 l-16 30 961 0 960 0 0 -930 0 -930 1851 0
c1477 0 1850 -3 1846 -12 -21 -51 -22 -51 42 -19 64 33 63 33 75 -19 9 -39 41
-85 82 -116 l37 -29 234 -3 233 -3 -31 -61 c-33 -65 -33 -76 0 -58 19 10 21 8
21 -25 l0 -35 -3600 0 -3600 0 0 1020 0 1020 290 0 c264 0 294 2 343 20 74 28
147 106 147 159 0 27 -1 27 70 -9z m2772 -647 l3 -678 1426 -3 1426 -2 17 -45
c22 -57 91 -118 153 -136 38 -11 159 -14 593 -14 l545 0 50 23 c63 29 102 66
126 117 23 49 24 84 3 133 -21 52 -60 90 -119 118 -49 23 -57 24 -327 24 -185
0 -278 3 -278 10 0 6 12 33 26 61 27 55 27 66 -4 50 -19 -10 -20 -6 -24 87 -3
53 -3 100 -1 105 2 4 128 7 279 7 275 0 275 0 330 26 59 28 96 69 117 130 l14
39 957 3 956 2 0 -610 0 -610 -985 0 -986 0 11 21 c7 11 9 23 7 26 -3 2 -32
-10 -66 -26 l-61 -31 0 22 c-1 74 -78 159 -160 177 -70 15 -801 15 -872 0 -71
-15 -144 -85 -154 -147 -4 -23 -11 -42 -16 -42 -5 0 -31 12 -59 26 -56 28 -66
27 -49 -5 l11 -21 -1841 0 -1840 0 0 920 0 920 395 0 395 0 2 -677z m4209 226
c34 -16 68 -42 85 -65 25 -32 29 -47 29 -99 0 -52 -4 -67 -29 -99 -16 -22 -50
-48 -80 -62 l-51 -24 -556 0 c-389 0 -566 3 -590 11 -85 29 -139 96 -139 172
0 99 73 169 195 187 27 5 282 7 565 7 l515 -2 56 -26z m4 -728 c53 -24 112
-91 121 -136 14 -79 -35 -157 -126 -199 -44 -21 -58 -21 -600 -21 l-555 0 -58
28 c-156 77 -152 256 8 328 37 17 79 19 605 19 525 0 568 -2 605 -19z m-149
-503 c137 -75 139 -271 3 -340 -31 -16 -75 -18 -477 -18 -481 0 -470 -1 -523
57 -40 43 -49 66 -49 130 0 92 55 162 144 184 17 4 220 7 451 6 374 -2 423 -4
451 -19z"/>
<path d="M7093 9755 c0 -33 2 -45 4 -27 2 18 2 45 0 60 -2 15 -4 0 -4 -33z"/>
<path d="M6942 9783 c12 -3 18 -17 21 -46 l4 -42 1 42 c2 30 7 43 20 46 9 3
-1 5 -23 5 -22 0 -32 -2 -23 -5z"/>
<path d="M7038 9777 c-7 -21 6 -70 20 -73 7 -1 8 0 2 3 -12 6 -13 50 -1 55 5
2 3 8 -4 15 -10 9 -14 9 -17 0z"/>
<path d="M7013 9735 c0 -22 2 -30 4 -17 2 12 2 30 0 40 -3 9 -5 -1 -4 -23z"/>
<path d="M7130 9755 c-23 -28 17 -72 42 -47 8 8 5 9 -9 6 -12 -3 -24 -1 -27 5
-5 7 3 11 18 11 28 0 33 9 14 28 -16 16 -23 15 -38 -3z m35 -5 c3 -5 -3 -10
-15 -10 -12 0 -18 5 -15 10 3 6 10 10 15 10 5 0 12 -4 15 -10z"/>
<path d="M6962 8915 c0 -34 3 -52 7 -42 6 17 8 17 20 3 7 -9 18 -16 24 -16 6
0 2 6 -9 14 -17 13 -17 17 -5 38 14 23 14 23 -7 5 -20 -19 -21 -19 -25 20 -2
26 -4 20 -5 -22z"/>
<path d="M6710 8905 c0 -46 0 -46 33 -43 30 3 32 5 32 43 0 38 -2 40 -32 43
-33 3 -33 3 -33 -43z m55 20 c0 -5 -10 -11 -22 -13 -16 -2 -23 2 -23 13 0 11
7 15 23 13 12 -2 22 -7 22 -13z m0 -40 c0 -5 -10 -11 -22 -13 -16 -2 -23 2
-23 13 0 11 7 15 23 13 12 -2 22 -7 22 -13z"/>
<path d="M7278 8939 c-2 -5 -13 -11 -26 -12 -19 -1 -22 -7 -21 -37 l1 -35 7
30 c8 40 38 46 43 9 2 -15 9 -29 16 -30 7 -1 8 0 2 3 -12 6 -13 50 -1 55 5 2
3 8 -4 15 -9 8 -15 9 -17 2z"/>
<path d="M6812 8918 c-16 -16 -15 -33 4 -48 22 -19 54 12 38 37 -14 22 -27 26
-42 11z m35 -14 c8 -21 -13 -42 -28 -27 -13 13 -5 43 11 43 6 0 13 -7 17 -16z"/>
<path d="M6892 8918 c-16 -16 -15 -33 4 -48 22 -19 54 12 38 37 -14 22 -27 26
-42 11z m35 -14 c8 -21 -13 -42 -28 -27 -13 13 -5 43 11 43 6 0 13 -7 17 -16z"/>
<path d="M7071 8876 c1 -28 4 -41 6 -29 2 13 10 20 17 17 7 -3 19 2 26 11 18
21 2 50 -29 51 -19 1 -21 -4 -20 -50z m46 28 c8 -21 -13 -42 -28 -27 -13 13
-5 43 11 43 6 0 13 -7 17 -16z"/>
<path d="M7155 8920 c-3 -5 0 -7 9 -4 8 3 21 2 28 -2 9 -6 5 -10 -12 -14 -34
-8 -32 -35 3 -36 21 -1 27 3 27 20 0 36 -39 62 -55 36z m40 -40 c-3 -5 -13
-10 -21 -10 -8 0 -14 5 -14 10 0 6 9 10 21 10 11 0 17 -4 14 -10z"/>
<path d="M7335 8920 c-8 -14 3 -30 21 -30 8 0 14 -5 14 -11 0 -7 -9 -9 -21 -6
-16 4 -19 3 -11 -5 12 -12 42 -4 42 13 0 6 -9 13 -20 16 -11 3 -20 10 -20 15
0 6 9 8 20 5 11 -3 18 -1 14 4 -7 12 -31 11 -39 -1z"/>
<path d="M6022 8095 c0 -34 3 -52 7 -42 6 17 8 17 20 3 7 -9 18 -16 23 -16 5
0 2 7 -6 16 -19 19 -20 26 -3 44 6 8 2 6 -10 -4 -22 -18 -22 -18 -26 21 -2 26
-4 20 -5 -22z"/>
<path d="M6263 8095 c0 -33 2 -45 4 -27 2 18 2 45 0 60 -2 15 -4 0 -4 -33z"/>
<path d="M5770 8085 c0 -46 0 -46 33 -43 30 3 32 5 32 43 0 38 -2 40 -32 43
-33 3 -33 3 -33 -43z m55 20 c0 -5 -10 -11 -22 -13 -16 -2 -23 2 -23 13 0 11
7 15 23 13 12 -2 22 -7 22 -13z m0 -40 c0 -5 -10 -11 -22 -13 -16 -2 -23 2
-23 13 0 11 7 15 23 13 12 -2 22 -7 22 -13z"/>
<path d="M6128 8117 c-7 -21 6 -70 20 -73 7 -1 8 0 2 3 -12 6 -13 50 -1 55 5
2 3 8 -4 15 -10 9 -14 9 -17 0z"/>
<path d="M6208 8117 c-7 -21 6 -70 20 -73 7 -1 8 0 2 3 -12 6 -13 50 -1 55 5
2 3 8 -4 15 -10 9 -14 9 -17 0z"/>
<path d="M5872 8098 c-16 -16 -15 -33 4 -48 22 -19 54 12 38 37 -14 22 -27 26
-42 11z m35 -14 c8 -21 -13 -42 -28 -27 -13 13 -5 43 11 43 6 0 13 -7 17 -16z"/>
<path d="M5952 8098 c-16 -16 -15 -33 4 -48 22 -19 54 12 38 37 -14 22 -27 26
-42 11z m35 -14 c8 -21 -13 -42 -28 -27 -13 13 -5 43 11 43 6 0 13 -7 17 -16z"/>
<path d="M6183 8075 c0 -22 2 -30 4 -17 2 12 2 30 0 40 -3 9 -5 -1 -4 -23z"/>
<path d="M6300 8095 c-23 -28 17 -72 42 -47 8 8 5 9 -9 6 -12 -3 -24 -1 -27 5
-5 7 3 11 18 11 28 0 33 9 14 28 -16 16 -23 15 -38 -3z m35 -5 c3 -5 -3 -10
-15 -10 -12 0 -18 5 -15 10 3 6 10 10 15 10 5 0 12 -4 15 -10z"/>
<path d="M7872 8095 c0 -42 2 -51 7 -30 3 17 13 30 21 30 8 0 18 -13 22 -30 6
-29 6 -29 5 5 -2 28 -6 35 -22 35 -13 0 -22 9 -26 25 -4 15 -7 1 -7 -35z"/>
<path d="M8463 8095 c0 -33 2 -45 4 -27 2 18 2 45 0 60 -2 15 -4 0 -4 -33z"/>
<path d="M7792 8118 c-27 -27 -7 -78 29 -78 10 0 20 4 23 8 3 5 -4 8 -16 8
-29 -1 -46 28 -28 49 7 9 22 14 32 12 10 -3 16 -1 12 4 -8 13 -38 11 -52 -3z"/>
<path d="M8108 8117 c-7 -21 6 -70 20 -73 7 -1 8 0 2 3 -12 6 -13 50 -1 55 5
2 3 8 -4 15 -10 9 -14 9 -17 0z"/>
<path d="M8328 8117 c-7 -21 6 -70 20 -73 7 -1 8 0 2 3 -12 6 -13 50 -1 55 5
2 3 8 -4 15 -10 9 -14 9 -17 0z"/>
<path d="M8408 8117 c-7 -21 6 -70 20 -73 7 -1 8 0 2 3 -12 6 -13 50 -1 55 5
2 3 8 -4 15 -10 9 -14 9 -17 0z"/>
<path d="M7955 8100 c-3 -5 0 -7 9 -4 8 3 21 2 28 -2 9 -6 5 -10 -12 -14 -34
-8 -32 -35 3 -36 21 -1 27 3 27 20 0 36 -39 62 -55 36z m40 -40 c-3 -5 -13
-10 -21 -10 -8 0 -14 5 -14 10 0 6 9 10 21 10 11 0 17 -4 14 -10z"/>
<path d="M8031 8056 c1 -28 4 -41 6 -29 2 13 10 20 17 17 7 -3 19 2 26 11 18
21 2 50 -29 51 -19 1 -21 -4 -20 -50z m46 28 c8 -21 -13 -42 -28 -27 -13 13
-5 43 11 43 6 0 13 -7 17 -16z"/>
<path d="M8170 8095 c-23 -28 17 -72 42 -47 8 8 5 9 -9 6 -12 -3 -24 -1 -27 5
-5 7 3 11 18 11 28 0 33 9 14 28 -16 16 -23 15 -38 -3z m35 -5 c3 -5 -3 -10
-15 -10 -12 0 -18 5 -15 10 3 6 10 10 15 10 5 0 12 -4 15 -10z"/>
<path d="M8241 8070 c1 -27 3 -29 6 -10 2 14 11 30 20 37 13 10 13 12 -6 10
-17 -1 -21 -7 -20 -37z"/>
<path d="M8383 8075 c0 -22 2 -30 4 -17 2 12 2 30 0 40 -3 9 -5 -1 -4 -23z"/>
<path d="M8500 8095 c-23 -28 17 -72 42 -47 8 8 5 9 -9 6 -12 -3 -24 -1 -27 5
-5 7 3 11 18 11 28 0 33 9 14 28 -16 16 -23 15 -38 -3z m35 -5 c3 -5 -3 -10
-15 -10 -12 0 -18 5 -15 10 3 6 10 10 15 10 5 0 12 -4 15 -10z"/>
<path d="M14831 7069 c-1 -52 1 -56 20 -55 31 1 47 30 29 51 -7 9 -19 14 -26
11 -8 -3 -14 5 -17 22 -2 15 -5 2 -6 -29z m46 -15 c8 -21 -13 -42 -28 -27 -13
13 -5 43 11 43 6 0 13 -7 17 -16z"/>
<path d="M14913 7065 c0 -33 2 -45 4 -27 2 18 2 45 0 60 -2 15 -4 0 -4 -33z"/>
<path d="M15582 7099 c-4 -11 -6 -37 -3 -57 5 -36 6 -36 9 -7 2 16 9 33 15 37
9 6 9 8 0 8 -7 0 -13 6 -13 14 0 8 6 17 13 19 9 4 9 6 -1 6 -7 1 -16 -8 -20
-20z"/>
<path d="M14500 7097 c0 -10 39 -87 45 -87 7 0 47 81 42 86 -2 2 -12 -14 -22
-37 l-19 -41 -22 44 c-13 24 -23 39 -24 35z"/>
<path d="M15096 7049 c-9 -29 -14 -54 -12 -57 3 -2 12 20 20 49 9 29 14 54 12
57 -3 2 -12 -20 -20 -49z"/>
<path d="M15131 7053 c1 -27 3 -40 6 -30 2 9 10 17 18 17 7 0 18 7 25 15 16
19 -3 45 -31 45 -16 0 -19 -7 -18 -47z m44 17 c0 -8 -8 -16 -17 -18 -13 -2
-18 3 -18 18 0 15 5 20 18 18 9 -2 17 -10 17 -18z"/>
<path d="M15848 7087 c-7 -21 6 -70 20 -73 7 -1 8 0 2 3 -12 6 -13 50 -1 55 5
2 3 8 -4 15 -10 9 -14 9 -17 0z"/>
<path d="M14595 7070 c-3 -5 0 -7 9 -4 8 3 21 2 28 -2 9 -6 5 -10 -12 -14 -34
-8 -32 -35 3 -36 21 -1 27 3 27 20 0 36 -39 62 -55 36z m40 -40 c-3 -5 -13
-10 -21 -10 -8 0 -14 5 -14 10 0 6 9 10 21 10 11 0 17 -4 14 -10z"/>
<path d="M14671 7040 c1 -27 3 -29 6 -10 2 14 11 30 20 37 13 10 13 12 -6 10
-17 -1 -21 -7 -20 -37z"/>
<path d="M14723 7045 c0 -22 2 -30 4 -17 2 12 2 30 0 40 -3 9 -5 -1 -4 -23z"/>
<path d="M14755 7070 c-3 -5 0 -7 9 -4 8 3 21 2 28 -2 9 -6 5 -10 -12 -14 -34
-8 -32 -35 3 -36 21 -1 27 3 27 20 0 36 -39 62 -55 36z m40 -40 c-3 -5 -13
-10 -21 -10 -8 0 -14 5 -14 10 0 6 9 10 21 10 11 0 17 -4 14 -10z"/>
<path d="M14950 7065 c-23 -28 17 -72 42 -47 8 8 5 9 -9 6 -12 -3 -24 -1 -27
5 -5 7 3 11 18 11 28 0 33 9 14 28 -16 16 -23 15 -38 -3z m35 -5 c3 -5 -3 -10
-15 -10 -12 0 -18 5 -15 10 3 6 10 10 15 10 5 0 12 -4 15 -10z"/>
<path d="M15025 7070 c-8 -14 3 -30 21 -30 8 0 14 -5 14 -11 0 -7 -9 -9 -21
-6 -16 4 -19 3 -11 -5 12 -12 42 -4 42 13 0 6 -9 13 -20 16 -11 3 -20 10 -20
15 0 6 9 8 20 5 11 -3 18 -1 14 4 -7 12 -31 11 -39 -1z"/>
<path d="M15205 7070 c-3 -5 0 -7 9 -4 8 3 21 2 28 -2 9 -6 5 -10 -12 -14 -34
-8 -32 -35 3 -36 21 -1 27 3 27 20 0 36 -39 62 -55 36z m40 -40 c-3 -5 -13
-10 -21 -10 -8 0 -14 5 -14 10 0 6 9 10 21 10 11 0 17 -4 14 -10z"/>
<path d="M15281 7040 c1 -27 3 -29 6 -10 2 14 11 30 20 37 13 10 13 12 -6 10
-17 -1 -21 -7 -20 -37z"/>
<path d="M15335 7070 c-8 -14 3 -30 21 -30 8 0 14 -5 14 -11 0 -7 -9 -9 -21
-6 -16 4 -19 3 -11 -5 12 -12 42 -4 42 13 0 6 -9 13 -20 16 -11 3 -20 10 -20
15 0 6 9 8 20 5 11 -3 18 -1 14 4 -7 12 -31 11 -39 -1z"/>
<path d="M15410 7065 c-23 -28 17 -72 42 -47 8 8 5 9 -9 6 -12 -3 -24 -1 -27
5 -5 7 3 11 18 11 28 0 33 9 14 28 -16 16 -23 15 -38 -3z m35 -5 c3 -5 -3 -10
-15 -10 -12 0 -18 5 -15 10 3 6 10 10 15 10 5 0 12 -4 15 -10z"/>
<path d="M15481 7040 c1 -27 3 -29 6 -10 2 14 11 30 20 37 13 10 13 12 -6 10
-17 -1 -21 -7 -20 -37z"/>
<path d="M15623 7050 c2 -31 5 -35 30 -36 25 -1 27 2 26 35 -1 36 -1 36 -8 6
-3 -17 -13 -30 -21 -30 -8 0 -18 13 -22 30 -6 29 -6 29 -5 -5z"/>
<path d="M15701 7041 c1 -36 1 -36 8 -6 3 17 13 30 21 30 8 0 18 -13 22 -30 6
-29 6 -29 5 5 -2 31 -5 35 -29 36 -26 1 -28 -2 -27 -35z"/>
<path d="M15792 7068 c-16 -16 -15 -33 3 -48 11 -9 19 -10 26 -3 8 8 6 11 -7
10 -13 -1 -19 5 -19 18 0 13 6 20 17 19 10 -1 15 2 12 7 -7 12 -18 11 -32 -3z"/>
<path d="M15903 7045 c0 -22 2 -30 4 -17 2 12 2 30 0 40 -3 9 -5 -1 -4 -23z"/>
<path d="M15942 7068 c-16 -16 -15 -33 4 -48 22 -19 54 12 38 37 -14 22 -27
26 -42 11z m35 -14 c8 -21 -13 -42 -28 -27 -13 13 -5 43 11 43 6 0 13 -7 17
-16z"/>
<path d="M16011 7041 c1 -36 1 -36 8 -6 3 17 13 30 21 30 8 0 18 -13 22 -30 6
-29 6 -29 5 5 -2 31 -5 35 -29 36 -26 1 -28 -2 -27 -35z"/>
<path d="M16095 7070 c-8 -14 3 -30 21 -30 8 0 14 -5 14 -11 0 -7 -9 -9 -21
-6 -16 4 -19 3 -11 -5 12 -12 42 -4 42 13 0 6 -9 13 -20 16 -11 3 -20 10 -20
15 0 6 9 8 20 5 11 -3 18 -1 14 4 -7 12 -31 11 -39 -1z"/>
<path d="M6791 7042 c-6 -11 -16 -33 -21 -49 -9 -25 -8 -26 4 -10 7 9 21 17
31 17 10 0 24 -8 32 -17 10 -14 10 -8 -2 22 -21 53 -31 61 -44 37z m29 -24 c0
-5 -7 -8 -15 -8 -17 0 -18 2 -9 25 5 13 8 14 15 3 5 -7 9 -16 9 -20z"/>
<path d="M6938 7047 c-7 -21 6 -70 20 -73 7 -1 8 0 2 3 -12 6 -13 50 -1 55 5
2 3 8 -4 15 -10 9 -14 9 -17 0z"/>
<path d="M7122 7048 c-27 -27 -7 -78 29 -78 10 0 20 4 23 8 3 5 -4 8 -16 8
-29 -1 -46 28 -28 49 7 9 22 14 32 12 10 -3 16 -1 12 4 -8 13 -38 11 -52 -3z"/>
<path d="M7278 7047 c-7 -21 6 -70 20 -73 7 -1 8 0 2 3 -12 6 -13 50 -1 55 5
2 3 8 -4 15 -10 9 -14 9 -17 0z"/>
<path d="M6863 7010 c2 -31 5 -35 30 -36 25 -1 27 2 26 35 -1 36 -1 36 -8 6
-3 -17 -13 -30 -21 -30 -8 0 -18 13 -22 30 -6 29 -6 29 -5 -5z"/>
<path d="M7002 7028 c-16 -16 -15 -33 4 -48 22 -19 54 12 38 37 -14 22 -27 26
-42 11z m35 -14 c8 -21 -13 -42 -28 -27 -13 13 -5 43 11 43 6 0 13 -7 17 -16z"/>
<path d="M7205 7030 c-3 -5 0 -7 9 -4 8 3 21 2 28 -2 9 -6 5 -10 -12 -14 -34
-8 -32 -35 3 -36 21 -1 27 3 27 20 0 36 -39 62 -55 36z m40 -40 c-3 -5 -13
-10 -21 -10 -8 0 -14 5 -14 10 0 6 9 10 21 10 11 0 17 -4 14 -10z"/>
<path d="M4782 5145 c0 -34 3 -52 7 -42 6 17 8 17 20 3 7 -9 18 -16 24 -16 6
0 2 6 -9 14 -17 13 -17 17 -5 38 14 23 14 23 -7 5 -20 -19 -21 -19 -25 20 -2
26 -4 20 -5 -22z"/>
<path d="M4963 5145 c0 -33 2 -45 4 -27 2 18 2 45 0 60 -2 15 -4 0 -4 -33z"/>
<path d="M4530 5135 c0 -46 0 -46 33 -43 30 3 32 5 32 43 0 38 -2 40 -32 43
-33 3 -33 3 -33 -43z m55 20 c0 -5 -10 -11 -22 -13 -16 -2 -23 2 -23 13 0 11
7 15 23 13 12 -2 22 -7 22 -13z m0 -40 c0 -5 -10 -11 -22 -13 -16 -2 -23 2
-23 13 0 11 7 15 23 13 12 -2 22 -7 22 -13z"/>
<path d="M5088 5167 c-7 -21 6 -70 20 -73 7 -1 8 0 2 3 -12 6 -13 50 -1 55 5
2 3 8 -4 15 -10 9 -14 9 -17 0z"/>
<path d="M4632 5148 c-16 -16 -15 -33 4 -48 22 -19 54 12 38 37 -14 22 -27 26
-42 11z m35 -14 c8 -21 -13 -42 -28 -27 -13 13 -5 43 11 43 6 0 13 -7 17 -16z"/>
<path d="M4712 5148 c-16 -16 -15 -33 4 -48 22 -19 54 12 38 37 -14 22 -27 26
-42 11z m35 -14 c8 -21 -13 -42 -28 -27 -13 13 -5 43 11 43 6 0 13 -7 17 -16z"/>
<path d="M4855 5150 c-8 -14 3 -30 21 -30 8 0 14 -5 14 -11 0 -7 -9 -9 -21 -6
-16 4 -19 3 -11 -5 12 -12 42 -4 42 13 0 6 -9 13 -20 16 -11 3 -20 10 -20 15
0 6 9 8 20 5 11 -3 18 -1 14 4 -7 12 -31 11 -39 -1z"/>
<path d="M4993 5125 c0 -22 2 -30 4 -17 2 12 2 30 0 40 -3 9 -5 -1 -4 -23z"/>
<path d="M5025 5150 c-8 -14 3 -30 21 -30 8 0 14 -5 14 -11 0 -7 -9 -9 -21 -6
-16 4 -19 3 -11 -5 12 -12 42 -4 42 13 0 6 -9 13 -20 16 -11 3 -20 10 -20 15
0 6 9 8 20 5 11 -3 18 -1 14 4 -7 12 -31 11 -39 -1z"/>
<path d="M9132 5095 c0 -42 2 -51 7 -30 3 17 13 30 21 30 8 0 18 -13 22 -30 6
-29 6 -29 5 5 -2 28 -6 35 -22 35 -13 0 -22 9 -26 25 -4 15 -7 1 -7 -35z"/>
<path d="M9593 5095 c0 -33 2 -45 4 -27 2 18 2 45 0 60 -2 15 -4 0 -4 -33z"/>
<path d="M9052 5118 c-27 -27 -7 -78 29 -78 10 0 20 4 23 8 3 5 -4 8 -16 8
-29 -1 -46 28 -28 49 7 9 22 14 32 12 10 -3 16 -1 12 4 -8 13 -38 11 -52 -3z"/>
<path d="M9368 5117 c-7 -21 6 -70 20 -73 7 -1 8 0 2 3 -12 6 -13 50 -1 55 5
2 3 8 -4 15 -10 9 -14 9 -17 0z"/>
<path d="M9718 5117 c-7 -21 6 -70 20 -73 7 -1 8 0 2 3 -12 6 -13 50 -1 55 5
2 3 8 -4 15 -10 9 -14 9 -17 0z"/>
<path d="M9215 5100 c-3 -5 0 -7 9 -4 8 3 21 2 28 -2 9 -6 5 -10 -12 -14 -34
-8 -32 -35 3 -36 21 -1 27 3 27 20 0 36 -39 62 -55 36z m40 -40 c-3 -5 -13
-10 -21 -10 -8 0 -14 5 -14 10 0 6 9 10 21 10 11 0 17 -4 14 -10z"/>
<path d="M9291 5056 c1 -28 4 -41 6 -29 2 13 10 20 17 17 7 -3 19 2 26 11 18
21 2 50 -29 51 -19 1 -21 -4 -20 -50z m46 28 c8 -21 -13 -42 -28 -27 -13 13
-5 43 11 43 6 0 13 -7 17 -16z"/>
<path d="M9430 5095 c-23 -28 17 -72 42 -47 8 8 5 9 -9 6 -12 -3 -24 -1 -27 5
-5 7 3 11 18 11 28 0 33 9 14 28 -16 16 -23 15 -38 -3z m35 -5 c3 -5 -3 -10
-15 -10 -12 0 -18 5 -15 10 3 6 10 10 15 10 5 0 12 -4 15 -10z"/>
<path d="M9501 5070 c1 -27 3 -29 6 -10 2 14 11 30 20 37 13 10 13 12 -6 10
-17 -1 -21 -7 -20 -37z"/>
<path d="M9623 5075 c0 -22 2 -30 4 -17 2 12 2 30 0 40 -3 9 -5 -1 -4 -23z"/>
<path d="M9655 5100 c-8 -14 3 -30 21 -30 8 0 14 -5 14 -11 0 -7 -9 -9 -21 -6
-16 4 -19 3 -11 -5 12 -12 42 -4 42 13 0 6 -9 13 -20 16 -11 3 -20 10 -20 15
0 6 9 8 20 5 11 -3 18 -1 14 4 -7 12 -31 11 -39 -1z"/>
<path d="M3631 4183 c1 -27 3 -40 6 -30 2 9 13 17 23 17 22 0 34 28 19 46 -6
8 -20 14 -30 14 -16 0 -19 -7 -18 -47z m44 17 c0 -8 -8 -16 -17 -18 -13 -2
-18 3 -18 18 0 15 5 20 18 18 9 -2 17 -10 17 -18z"/>
<path d="M3888 4217 c-7 -21 6 -70 20 -73 7 -1 8 0 2 3 -12 6 -13 50 -1 55 5
2 3 8 -4 15 -10 9 -14 9 -17 0z"/>
<path d="M3722 4198 c-16 -16 -15 -33 4 -48 22 -19 54 12 38 37 -14 22 -27 26
-42 11z m35 -14 c8 -21 -13 -42 -28 -27 -13 13 -5 43 11 43 6 0 13 -7 17 -16z"/>
<path d="M3795 4200 c-8 -14 3 -30 21 -30 8 0 14 -5 14 -11 0 -7 -9 -9 -21 -6
-16 4 -19 3 -11 -5 12 -12 42 -4 42 13 0 6 -9 13 -20 16 -11 3 -20 10 -20 15
0 6 9 8 20 5 11 -3 18 -1 14 4 -7 12 -31 11 -39 -1z"/>
<path d="M3863 4175 c0 -22 2 -30 4 -17 2 12 2 30 0 40 -3 9 -5 -1 -4 -23z"/>
<path d="M3943 4175 c0 -22 2 -30 4 -17 2 12 2 30 0 40 -3 9 -5 -1 -4 -23z"/>
<path d="M3982 4198 c-16 -16 -15 -33 4 -48 22 -19 54 12 38 37 -14 22 -27 26
-42 11z m35 -14 c8 -21 -13 -42 -28 -27 -13 13 -5 43 11 43 6 0 13 -7 17 -16z"/>
<path d="M4051 4171 c1 -36 1 -36 8 -6 3 17 13 30 21 30 8 0 18 -13 22 -30 6
-29 6 -29 5 5 -2 31 -5 35 -29 36 -26 1 -28 -2 -27 -35z"/>
<path d="M5092 4158 l-2 -48 33 1 c29 2 29 2 5 6 -24 4 -27 10 -31 46 l-4 42
-1 -47z"/>
<path d="M5258 4187 c-7 -21 6 -70 20 -73 7 -1 8 0 2 3 -12 6 -13 50 -1 55 5
2 3 8 -4 15 -10 9 -14 9 -17 0z"/>
<path d="M5163 4145 c0 -22 2 -30 4 -17 2 12 2 30 0 40 -3 9 -5 -1 -4 -23z"/>
<path d="M5195 4170 c-8 -14 3 -30 21 -30 8 0 14 -5 14 -11 0 -7 -9 -9 -21 -6
-16 4 -19 3 -11 -5 12 -12 42 -4 42 13 0 6 -9 13 -20 16 -11 3 -20 10 -20 15
0 6 9 8 20 5 11 -3 18 -1 14 4 -7 12 -31 11 -39 -1z"/>
<path d="M6511 4139 c-1 -52 1 -56 20 -55 31 1 47 30 29 51 -7 9 -19 14 -26
11 -8 -3 -14 5 -17 22 -2 15 -5 2 -6 -29z m46 -15 c8 -21 -13 -42 -28 -27 -13
13 -5 43 11 43 6 0 13 -7 17 -16z"/>
<path d="M6201 4123 l2 -48 6 39 6 40 25 -37 c14 -20 28 -37 33 -37 4 0 6 21
6 48 l-2 47 -6 -39 -6 -40 -25 37 c-14 20 -28 37 -32 37 -5 0 -7 -21 -7 -47z"/>
<path d="M6303 4120 c2 -31 5 -35 30 -36 25 -1 27 2 26 35 -1 36 -1 36 -8 6
-3 -17 -13 -30 -21 -30 -8 0 -18 13 -22 30 -6 29 -6 29 -5 -5z"/>
<path d="M6381 4111 c1 -36 1 -36 8 -6 3 17 13 30 21 30 8 0 17 -13 21 -30 l6
-30 4 30 c2 18 10 30 19 30 8 0 18 -13 22 -30 6 -29 6 -29 5 5 l-2 35 -52 1
-53 1 1 -36z"/>
<path d="M6600 4135 c-23 -28 17 -72 42 -47 8 8 5 9 -9 6 -12 -3 -24 -1 -27 5
-5 7 3 11 18 11 28 0 33 9 14 28 -16 16 -23 15 -38 -3z m35 -5 c3 -5 -3 -10
-15 -10 -12 0 -18 5 -15 10 3 6 10 10 15 10 5 0 12 -4 15 -10z"/>
<path d="M6671 4110 c1 -27 3 -29 6 -10 2 14 11 30 20 37 13 10 13 12 -6 10
-17 -1 -21 -7 -20 -37z"/>
<path d="M10711 4053 c1 -27 3 -40 6 -30 2 9 10 17 18 17 7 0 18 7 25 15 16
19 -3 45 -31 45 -16 0 -19 -7 -18 -47z m44 17 c0 -8 -8 -16 -17 -18 -13 -2
-18 3 -18 18 0 15 5 20 18 18 9 -2 17 -10 17 -18z"/>
<path d="M10968 4087 c-7 -21 6 -70 20 -73 7 -1 8 0 2 3 -12 6 -13 50 -1 55 5
2 3 8 -4 15 -10 9 -14 9 -17 0z"/>
<path d="M10802 4068 c-16 -16 -15 -33 4 -48 22 -19 54 12 38 37 -14 22 -27
26 -42 11z m35 -14 c8 -21 -13 -42 -28 -27 -13 13 -5 43 11 43 6 0 13 -7 17
-16z"/>
<path d="M10875 4070 c-8 -14 3 -30 21 -30 8 0 14 -5 14 -11 0 -7 -9 -9 -21
-6 -16 4 -19 3 -11 -5 12 -12 42 -4 42 13 0 6 -9 13 -20 16 -11 3 -20 10 -20
15 0 6 9 8 20 5 11 -3 18 -1 14 4 -7 12 -31 11 -39 -1z"/>
<path d="M10943 4045 c0 -22 2 -30 4 -17 2 12 2 30 0 40 -3 9 -5 -1 -4 -23z"/>
<path d="M11023 4045 c0 -22 2 -30 4 -17 2 12 2 30 0 40 -3 9 -5 -1 -4 -23z"/>
<path d="M11062 4068 c-16 -16 -15 -33 4 -48 22 -19 54 12 38 37 -14 22 -27
26 -42 11z m35 -14 c8 -21 -13 -42 -28 -27 -13 13 -5 43 11 43 6 0 13 -7 17
-16z"/>
<path d="M11131 4041 c1 -36 1 -36 8 -6 3 17 13 30 21 30 8 0 18 -13 22 -30 6
-29 6 -29 5 5 -2 31 -5 35 -29 36 -26 1 -28 -2 -27 -35z"/>
<path d="M9422 4048 l-2 -48 33 1 c29 2 29 2 5 6 -24 4 -27 10 -31 46 l-4 42
-1 -47z"/>
<path d="M9588 4077 c-7 -21 6 -70 20 -73 7 -1 8 0 2 3 -12 6 -13 50 -1 55 5
2 3 8 -4 15 -10 9 -14 9 -17 0z"/>
<path d="M9493 4035 c0 -22 2 -30 4 -17 2 12 2 30 0 40 -3 9 -5 -1 -4 -23z"/>
<path d="M9525 4060 c-8 -14 3 -30 21 -30 8 0 14 -5 14 -11 0 -7 -9 -9 -21 -6
-16 4 -19 3 -11 -5 12 -12 42 -4 42 13 0 6 -9 13 -20 16 -11 3 -20 10 -20 15
0 6 9 8 20 5 11 -3 18 -1 14 4 -7 12 -31 11 -39 -1z"/>
<path d="M8191 4009 c-1 -52 1 -56 20 -55 31 1 47 30 29 51 -7 9 -19 14 -26
11 -8 -3 -14 5 -17 22 -2 15 -5 2 -6 -29z m46 -15 c8 -21 -13 -42 -28 -27 -13
13 -5 43 11 43 6 0 13 -7 17 -16z"/>
<path d="M7881 3993 l2 -48 6 39 6 40 25 -37 c14 -20 28 -37 33 -37 4 0 6 21
6 48 l-2 47 -6 -39 -6 -40 -25 37 c-14 20 -28 37 -32 37 -5 0 -7 -21 -7 -47z"/>
<path d="M7983 3990 c2 -31 5 -35 30 -36 25 -1 27 2 26 35 -1 36 -1 36 -8 6
-3 -17 -13 -30 -21 -30 -8 0 -18 13 -22 30 -6 29 -6 29 -5 -5z"/>
<path d="M8061 3981 c1 -36 1 -36 8 -6 3 17 13 30 21 30 8 0 17 -13 21 -30 l6
-30 4 30 c2 18 10 30 19 30 8 0 18 -13 22 -30 6 -29 6 -29 5 5 l-2 35 -52 1
-53 1 1 -36z"/>
<path d="M8280 4005 c-23 -28 17 -72 42 -47 8 8 5 9 -9 6 -12 -3 -24 -1 -27 5
-5 7 3 11 18 11 28 0 33 9 14 28 -16 16 -23 15 -38 -3z m35 -5 c3 -5 -3 -10
-15 -10 -12 0 -18 5 -15 10 3 6 10 10 15 10 5 0 12 -4 15 -10z"/>
<path d="M8351 3980 c1 -27 3 -29 6 -10 2 14 11 30 20 37 13 10 13 12 -6 10
-17 -1 -21 -7 -20 -37z"/>
<path d="M12711 3959 c-1 -52 1 -56 20 -55 31 1 47 30 29 51 -7 9 -19 14 -26
11 -8 -3 -14 5 -17 22 -2 15 -5 2 -6 -29z m46 -15 c8 -21 -13 -42 -28 -27 -13
13 -5 43 11 43 6 0 13 -7 17 -16z"/>
<path d="M12421 3943 l2 -48 6 39 6 40 25 -37 c14 -20 28 -37 33 -37 4 0 6 21
6 48 l-2 47 -6 -40 -6 -40 -25 37 c-14 21 -28 38 -32 38 -5 0 -7 -21 -7 -47z"/>
<path d="M12525 3960 c-3 -5 0 -7 9 -4 8 3 21 2 28 -2 9 -6 5 -10 -12 -14 -34
-8 -32 -35 3 -36 21 -1 27 3 27 20 0 36 -39 62 -55 36z m40 -40 c-3 -5 -13
-10 -21 -10 -8 0 -14 5 -14 10 0 6 9 10 21 10 11 0 17 -4 14 -10z"/>
<path d="M12590 3967 c0 -10 29 -67 35 -67 7 0 37 61 32 66 -2 3 -10 -10 -17
-27 l-13 -31 -18 33 c-10 19 -18 30 -19 26z"/>
<path d="M12795 3960 c-3 -5 0 -7 9 -4 8 3 21 2 28 -2 9 -6 5 -10 -12 -14 -34
-8 -32 -35 3 -36 23 -1 27 3 27 26 0 34 -40 55 -55 30z m40 -40 c-3 -5 -13
-10 -21 -10 -8 0 -14 5 -14 10 0 6 9 10 21 10 11 0 17 -4 14 -10z"/>
<path d="M12871 3930 c1 -27 3 -29 6 -10 2 14 11 30 20 37 13 10 13 12 -6 10
-17 -1 -21 -7 -20 -37z"/>
<path d="M5703 3065 c0 -33 2 -45 4 -27 2 18 2 45 0 60 -2 15 -4 0 -4 -33z"/>
<path d="M5773 3065 c0 -33 2 -45 4 -27 2 18 2 45 0 60 -2 15 -4 0 -4 -33z"/>
<path d="M5283 3093 c-23 -9 -14 -31 18 -42 35 -12 30 -35 -7 -28 -13 2 -21 0
-18 -4 8 -13 38 -11 52 3 18 18 15 25 -19 37 -35 12 -30 35 7 28 13 -2 21 0
18 4 -6 10 -31 11 -51 2z"/>
<path d="M5898 3087 c-7 -21 6 -70 20 -73 7 -1 8 0 2 3 -12 6 -13 50 -1 55 5
2 3 8 -4 15 -10 9 -14 9 -17 0z"/>
<path d="M5361 3026 c1 -28 4 -41 6 -29 2 13 10 20 17 17 7 -3 19 2 26 11 18
21 2 50 -29 51 -19 1 -21 -4 -20 -50z m46 28 c8 -21 -13 -42 -28 -27 -13 13
-5 43 11 43 6 0 13 -7 17 -16z"/>
<path d="M5450 3065 c-23 -28 17 -72 42 -47 8 8 5 9 -9 6 -12 -3 -24 -1 -27 5
-5 7 3 11 18 11 28 0 33 9 14 28 -16 16 -23 15 -38 -3z m35 -5 c3 -5 -3 -10
-15 -10 -12 0 -18 5 -15 10 3 6 10 10 15 10 5 0 12 -4 15 -10z"/>
<path d="M5532 3068 c-16 -16 -15 -33 3 -48 11 -9 19 -10 26 -3 8 8 6 11 -7
10 -13 -1 -19 5 -19 18 0 13 6 20 17 19 10 -1 15 2 12 7 -7 12 -18 11 -32 -3z"/>
<path d="M5593 3045 c0 -22 2 -30 4 -17 2 12 2 30 0 40 -3 9 -5 -1 -4 -23z"/>
<path d="M5625 3070 c-3 -5 0 -7 9 -4 8 3 21 2 28 -2 9 -6 5 -10 -12 -14 -34
-8 -32 -35 3 -36 21 -1 27 3 27 20 0 36 -39 62 -55 36z m40 -40 c-3 -5 -13
-10 -21 -10 -8 0 -14 5 -14 10 0 6 9 10 21 10 11 0 17 -4 14 -10z"/>
<path d="M5803 3045 c0 -22 2 -30 4 -17 2 12 2 30 0 40 -3 9 -5 -1 -4 -23z"/>
<path d="M5835 3070 c-8 -14 3 -30 21 -30 8 0 14 -5 14 -11 0 -7 -9 -9 -21 -6
-16 4 -19 3 -11 -5 12 -12 42 -4 42 13 0 6 -9 13 -20 16 -11 3 -20 10 -20 15
0 6 9 8 20 5 11 -3 18 -1 14 4 -7 12 -31 11 -39 -1z"/>
<path d="M3813 3035 c0 -33 2 -45 4 -27 2 18 2 45 0 60 -2 15 -4 0 -4 -33z"/>
<path d="M4140 3065 c0 -16 -4 -23 -13 -19 -8 3 -20 -2 -27 -11 -18 -21 -2
-50 29 -51 19 -1 21 4 21 52 0 30 -2 54 -5 54 -3 0 -5 -11 -5 -25z m-3 -41 c8
-21 -13 -42 -28 -27 -13 13 -5 43 11 43 6 0 13 -7 17 -16z"/>
<path d="M3393 3063 c-23 -9 -14 -31 18 -42 35 -12 30 -35 -7 -28 -13 2 -21 0
-18 -4 8 -13 38 -11 52 3 18 18 15 25 -19 37 -35 12 -30 35 7 28 13 -2 21 0
18 4 -6 10 -31 11 -51 2z"/>
<path d="M3471 2996 c1 -28 4 -41 6 -29 2 13 10 20 17 17 7 -3 19 2 26 11 18
21 2 50 -29 51 -19 1 -21 -4 -20 -50z m46 28 c8 -21 -13 -42 -28 -27 -13 13
-5 43 11 43 6 0 13 -7 17 -16z"/>
<path d="M3560 3035 c-23 -28 17 -72 42 -47 8 8 5 9 -9 6 -12 -3 -24 -1 -27 5
-5 7 3 11 18 11 28 0 33 9 14 28 -16 16 -23 15 -38 -3z m35 -5 c3 -5 -3 -10
-15 -10 -12 0 -18 5 -15 10 3 6 10 10 15 10 5 0 12 -4 15 -10z"/>
<path d="M3642 3038 c-16 -16 -15 -33 3 -48 11 -9 19 -10 26 -3 8 8 6 11 -7
10 -13 -1 -19 5 -19 18 0 13 6 20 17 19 10 -1 15 2 12 7 -7 12 -18 11 -32 -3z"/>
<path d="M3703 3015 c0 -22 2 -30 4 -17 2 12 2 30 0 40 -3 9 -5 -1 -4 -23z"/>
<path d="M3735 3040 c-3 -5 0 -7 9 -4 8 3 21 2 28 -2 9 -6 5 -10 -12 -14 -34
-8 -32 -35 3 -36 21 -1 27 3 27 20 0 36 -39 62 -55 36z m40 -40 c-3 -5 -13
-10 -21 -10 -8 0 -14 5 -14 10 0 6 9 10 21 10 11 0 17 -4 14 -10z"/>
<path d="M3881 3010 c1 -27 3 -29 6 -10 2 14 11 30 20 37 13 10 13 12 -6 10
-17 -1 -21 -7 -20 -37z"/>
<path d="M3935 3040 c-3 -5 0 -7 9 -4 8 3 21 2 28 -2 9 -6 5 -10 -12 -14 -34
-8 -32 -35 3 -36 21 -1 27 3 27 20 0 36 -39 62 -55 36z m40 -40 c-3 -5 -13
-10 -21 -10 -8 0 -14 5 -14 10 0 6 9 10 21 10 11 0 17 -4 14 -10z"/>
<path d="M4011 3011 c1 -36 1 -36 8 -6 3 17 13 30 21 30 8 0 18 -13 22 -30 6
-29 6 -29 5 5 -2 31 -5 35 -29 36 -26 1 -28 -2 -27 -35z"/>
<path d="M4182 3038 c-16 -16 -15 -33 4 -48 22 -19 54 12 38 37 -14 22 -27 26
-42 11z m35 -14 c8 -21 -13 -42 -28 -27 -13 13 -5 43 11 43 6 0 13 -7 17 -16z"/>
<path d="M4251 3011 c1 -36 1 -36 8 -6 3 17 13 30 21 30 8 0 17 -13 21 -30 l6
-30 4 30 c2 18 10 30 19 30 8 0 18 -13 22 -30 6 -29 6 -29 5 5 l-2 35 -52 1
-53 1 1 -36z"/>
<path d="M10893 2855 c0 -33 2 -45 4 -27 2 18 2 45 0 60 -2 15 -4 0 -4 -33z"/>
<path d="M11220 2885 c0 -16 -4 -23 -13 -19 -8 3 -20 -2 -27 -11 -18 -21 -2
-50 29 -51 19 -1 21 4 21 52 0 30 -2 54 -5 54 -3 0 -5 -11 -5 -25z m-3 -41 c8
-21 -13 -42 -28 -27 -13 13 -5 43 11 43 6 0 13 -7 17 -16z"/>
<path d="M10473 2883 c-23 -9 -14 -31 18 -42 35 -12 30 -35 -7 -28 -13 2 -21
0 -18 -4 8 -13 38 -11 52 3 18 18 15 25 -19 37 -35 12 -30 35 7 28 13 -2 21 0
18 4 -6 10 -31 11 -51 2z"/>
<path d="M10551 2816 c1 -28 4 -41 6 -29 2 13 10 20 17 17 7 -3 19 2 26 11 18
21 2 50 -29 51 -19 1 -21 -4 -20 -50z m46 28 c8 -21 -13 -42 -28 -27 -13 13
-5 43 11 43 6 0 13 -7 17 -16z"/>
<path d="M10640 2855 c-23 -28 17 -72 42 -47 8 8 5 9 -9 6 -12 -3 -24 -1 -27
5 -5 7 3 11 18 11 28 0 33 9 14 28 -16 16 -23 15 -38 -3z m35 -5 c3 -5 -3 -10
-15 -10 -12 0 -18 5 -15 10 3 6 10 10 15 10 5 0 12 -4 15 -10z"/>
<path d="M10722 2858 c-16 -16 -15 -33 3 -48 11 -9 19 -10 26 -3 8 8 6 11 -7
10 -13 -1 -19 5 -19 18 0 13 6 20 17 19 10 -1 15 2 12 7 -7 12 -18 11 -32 -3z"/>
<path d="M10783 2835 c0 -22 2 -30 4 -17 2 12 2 30 0 40 -3 9 -5 -1 -4 -23z"/>
<path d="M10815 2860 c-3 -5 0 -7 9 -4 8 3 21 2 28 -2 9 -6 5 -10 -12 -14 -34
-8 -32 -35 3 -36 21 -1 27 3 27 20 0 36 -39 62 -55 36z m40 -40 c-3 -5 -13
-10 -21 -10 -8 0 -14 5 -14 10 0 6 9 10 21 10 11 0 17 -4 14 -10z"/>
<path d="M10961 2830 c1 -27 3 -29 6 -10 2 14 11 30 20 37 13 10 13 12 -6 10
-17 -1 -21 -7 -20 -37z"/>
<path d="M11015 2860 c-3 -5 0 -7 9 -4 8 3 21 2 28 -2 9 -6 5 -10 -12 -14 -34
-8 -32 -35 3 -36 21 -1 27 3 27 20 0 36 -39 62 -55 36z m40 -40 c-3 -5 -13
-10 -21 -10 -8 0 -14 5 -14 10 0 6 9 10 21 10 11 0 17 -4 14 -10z"/>
<path d="M11091 2831 c1 -36 1 -36 8 -6 3 17 13 30 21 30 8 0 18 -13 22 -30 6
-29 6 -29 5 5 -2 31 -5 35 -29 36 -26 1 -28 -2 -27 -35z"/>
<path d="M11262 2858 c-16 -16 -15 -33 4 -48 22 -19 54 12 38 37 -14 22 -27
26 -42 11z m35 -14 c8 -21 -13 -42 -28 -27 -13 13 -5 43 11 43 6 0 13 -7 17
-16z"/>
<path d="M11331 2831 c1 -36 1 -36 8 -6 3 17 13 30 21 30 8 0 17 -13 21 -30
l6 -30 4 30 c2 18 10 30 19 30 8 0 18 -13 22 -30 6 -29 6 -29 5 5 l-2 35 -52
1 -53 1 1 -36z"/>
<path d="M9193 2475 c0 -33 2 -45 4 -27 2 18 2 45 0 60 -2 15 -4 0 -4 -33z"/>
<path d="M9263 2475 c0 -33 2 -45 4 -27 2 18 2 45 0 60 -2 15 -4 0 -4 -33z"/>
<path d="M8773 2503 c-23 -9 -14 -31 18 -42 35 -12 30 -35 -7 -28 -13 2 -21 0
-18 -4 8 -13 38 -11 52 3 18 18 15 25 -19 37 -35 12 -30 35 7 28 13 -2 21 0
18 4 -6 10 -31 11 -51 2z"/>
<path d="M9388 2497 c-7 -21 6 -70 20 -73 7 -1 8 0 2 3 -12 6 -13 50 -1 55 5
2 3 8 -4 15 -10 9 -14 9 -17 0z"/>
<path d="M8851 2436 c1 -28 4 -41 6 -29 2 13 10 20 17 17 7 -3 19 2 26 11 18
21 2 50 -29 51 -19 1 -21 -4 -20 -50z m46 28 c8 -21 -13 -42 -28 -27 -13 13
-5 43 11 43 6 0 13 -7 17 -16z"/>
<path d="M8940 2475 c-23 -28 17 -72 42 -47 8 8 5 9 -9 6 -12 -3 -24 -1 -27 5
-5 7 3 11 18 11 28 0 33 9 14 28 -16 16 -23 15 -38 -3z m35 -5 c3 -5 -3 -10
-15 -10 -12 0 -18 5 -15 10 3 6 10 10 15 10 5 0 12 -4 15 -10z"/>
<path d="M9022 2478 c-16 -16 -15 -33 3 -48 11 -9 19 -10 26 -3 8 8 6 11 -7
10 -13 -1 -19 5 -19 18 0 13 6 20 17 19 10 -1 15 2 12 7 -7 12 -18 11 -32 -3z"/>
<path d="M9083 2455 c0 -22 2 -30 4 -17 2 12 2 30 0 40 -3 9 -5 -1 -4 -23z"/>
<path d="M9115 2480 c-3 -5 0 -7 9 -4 8 3 21 2 28 -2 9 -6 5 -10 -12 -14 -34
-8 -32 -35 3 -36 21 -1 27 3 27 20 0 36 -39 62 -55 36z m40 -40 c-3 -5 -13
-10 -21 -10 -8 0 -14 5 -14 10 0 6 9 10 21 10 11 0 17 -4 14 -10z"/>
<path d="M9293 2455 c0 -22 2 -30 4 -17 2 12 2 30 0 40 -3 9 -5 -1 -4 -23z"/>
<path d="M9325 2480 c-8 -14 3 -30 21 -30 8 0 14 -5 14 -11 0 -7 -9 -9 -21 -6
-16 4 -19 3 -11 -5 12 -12 42 -4 42 13 0 6 -9 13 -20 16 -11 3 -20 10 -20 15
0 6 9 8 20 5 11 -3 18 -1 14 4 -7 12 -31 11 -39 -1z"/>
<path d="M840 2495 c0 -16 -4 -23 -13 -19 -8 3 -20 -2 -27 -11 -18 -21 -2 -50
29 -51 19 -1 21 4 21 52 0 30 -2 54 -5 54 -3 0 -5 -11 -5 -25z m-3 -41 c8 -21
-13 -42 -28 -27 -13 13 -5 43 11 43 6 0 13 -7 17 -16z"/>
<path d="M1042 2499 c-4 -11 -6 -37 -3 -57 5 -36 6 -36 9 -7 2 16 9 33 15 37
9 6 9 8 0 8 -7 0 -13 6 -13 14 0 8 6 17 13 19 9 4 9 6 -1 6 -7 1 -16 -8 -20
-20z"/>
<path d="M561 2453 c1 -26 4 -38 6 -25 2 12 10 22 17 22 8 0 21 -10 30 -22 9
-13 14 -16 9 -8 -4 8 -7 28 -8 45 0 25 -4 31 -27 33 -27 3 -28 2 -27 -45z m42
22 c1 -5 -6 -11 -15 -13 -11 -2 -18 3 -18 13 0 17 30 18 33 0z"/>
<path d="M1418 2487 c-7 -21 6 -70 20 -73 7 -1 8 0 2 3 -12 6 -13 50 -1 55 5
2 3 8 -4 15 -10 9 -14 9 -17 0z"/>
<path d="M640 2465 c-23 -28 17 -72 42 -47 8 8 5 9 -9 6 -12 -3 -24 -1 -27 5
-5 7 3 11 18 11 28 0 33 9 14 28 -16 16 -23 15 -38 -3z m35 -5 c3 -5 -3 -10
-15 -10 -12 0 -18 5 -15 10 3 6 10 10 15 10 5 0 12 -4 15 -10z"/>
<path d="M711 2441 c1 -36 1 -36 8 -6 3 17 13 30 21 30 8 0 18 -13 22 -30 6
-29 6 -29 5 5 -2 31 -5 35 -29 36 -26 1 -28 -2 -27 -35z"/>
<path d="M880 2465 c-23 -28 17 -72 42 -47 8 8 5 9 -9 6 -12 -3 -24 -1 -27 5
-5 7 3 11 18 11 28 0 33 9 14 28 -16 16 -23 15 -38 -3z m35 -5 c3 -5 -3 -10
-15 -10 -12 0 -18 5 -15 10 3 6 10 10 15 10 5 0 12 -4 15 -10z"/>
<path d="M951 2440 c1 -27 3 -29 6 -10 2 14 11 30 20 37 13 10 13 12 -6 10
-17 -1 -21 -7 -20 -37z"/>
<path d="M1092 2468 c-16 -16 -15 -33 4 -48 22 -19 54 12 38 37 -14 22 -27 26
-42 11z m35 -14 c8 -21 -13 -42 -28 -27 -13 13 -5 43 11 43 6 0 13 -7 17 -16z"/>
<path d="M1161 2440 c1 -27 3 -29 6 -10 2 14 11 30 20 37 13 10 13 12 -6 10
-17 -1 -21 -7 -20 -37z"/>
<path d="M1211 2441 c1 -36 1 -36 8 -6 3 17 13 30 21 30 8 0 17 -13 21 -30 l6
-30 4 30 c2 18 10 30 19 30 8 0 18 -13 22 -30 6 -29 6 -29 5 5 l-2 35 -52 1
-53 1 1 -36z"/>
<path d="M1345 2470 c-3 -5 0 -7 9 -4 8 3 21 2 28 -2 9 -6 5 -10 -12 -14 -34
-8 -32 -35 3 -36 21 -1 27 3 27 20 0 36 -39 62 -55 36z m40 -40 c-3 -5 -13
-10 -21 -10 -8 0 -14 5 -14 10 0 6 9 10 21 10 11 0 17 -4 14 -10z"/>
<path d="M1475 2470 c-8 -14 3 -30 21 -30 8 0 14 -5 14 -11 0 -7 -9 -9 -21 -6
-16 4 -19 3 -11 -5 12 -12 42 -4 42 13 0 6 -9 13 -20 16 -11 3 -20 10 -20 15
0 6 9 8 20 5 11 -3 18 -1 14 4 -7 12 -31 11 -39 -1z"/>
<path d="M8340 1865 c0 -16 -4 -23 -13 -19 -8 3 -20 -2 -27 -11 -18 -21 -2
-50 29 -51 19 -1 21 4 21 52 0 30 -2 54 -5 54 -3 0 -5 -11 -5 -25z m-3 -41 c8
-21 -13 -42 -28 -27 -13 13 -5 43 11 43 6 0 13 -7 17 -16z"/>
<path d="M8061 1823 c1 -26 4 -38 6 -25 2 12 10 22 17 22 8 0 21 -10 30 -22 9
-13 14 -16 9 -8 -4 8 -7 28 -8 45 0 25 -4 31 -27 33 -27 3 -28 2 -27 -45z m42
22 c1 -5 -6 -11 -15 -13 -11 -2 -18 3 -18 13 0 17 30 18 33 0z"/>
<path d="M8140 1835 c-23 -28 17 -72 42 -47 8 8 5 9 -9 6 -12 -3 -24 -1 -27 5
-5 7 3 11 18 11 28 0 33 9 14 28 -16 16 -23 15 -38 -3z m35 -5 c3 -5 -3 -10
-15 -10 -12 0 -18 5 -15 10 3 6 10 10 15 10 5 0 12 -4 15 -10z"/>
<path d="M8211 1811 c1 -36 1 -36 8 -6 3 17 13 30 21 30 8 0 18 -13 22 -30 6
-29 6 -29 5 5 -2 31 -5 35 -29 36 -26 1 -28 -2 -27 -35z"/>
<path d="M8380 1835 c-23 -28 17 -72 42 -47 8 8 5 9 -9 6 -12 -3 -24 -1 -27 5
-5 7 3 11 18 11 28 0 33 9 14 28 -16 16 -23 15 -38 -3z m35 -5 c3 -5 -3 -10
-15 -10 -12 0 -18 5 -15 10 3 6 10 10 15 10 5 0 12 -4 15 -10z"/>
<path d="M8451 1810 c1 -27 3 -29 6 -10 2 14 11 30 20 37 13 10 13 12 -6 10
-17 -1 -21 -7 -20 -37z"/>
<path d="M8263 1105 c0 -33 2 -45 4 -27 2 18 2 45 0 60 -2 15 -4 0 -4 -33z"/>
<path d="M8590 1135 c0 -16 -4 -23 -13 -19 -8 3 -20 -2 -27 -11 -18 -21 -2
-50 29 -51 19 -1 21 4 21 52 0 30 -2 54 -5 54 -3 0 -5 -11 -5 -25z m-3 -41 c8
-21 -13 -42 -28 -27 -13 13 -5 43 11 43 6 0 13 -7 17 -16z"/>
<path d="M7843 1133 c-23 -9 -14 -31 18 -42 35 -12 30 -35 -7 -28 -13 2 -21 0
-18 -4 8 -13 38 -11 52 3 18 18 15 25 -19 37 -35 12 -30 35 7 28 13 -2 21 0
18 4 -6 10 -31 11 -51 2z"/>
<path d="M7921 1066 c1 -28 4 -41 6 -29 2 13 10 20 17 17 7 -3 19 2 26 11 18
21 2 50 -29 51 -19 1 -21 -4 -20 -50z m46 28 c8 -21 -13 -42 -28 -27 -13 13
-5 43 11 43 6 0 13 -7 17 -16z"/>
<path d="M8010 1105 c-23 -28 17 -72 42 -47 8 8 5 9 -9 6 -12 -3 -24 -1 -27 5
-5 7 3 11 18 11 28 0 33 9 14 28 -16 16 -23 15 -38 -3z m35 -5 c3 -5 -3 -10
-15 -10 -12 0 -18 5 -15 10 3 6 10 10 15 10 5 0 12 -4 15 -10z"/>
<path d="M8092 1108 c-16 -16 -15 -33 3 -48 11 -9 19 -10 26 -3 8 8 6 11 -7
10 -13 -1 -19 5 -19 18 0 13 6 20 17 19 10 -1 15 2 12 7 -7 12 -18 11 -32 -3z"/>
<path d="M8153 1085 c0 -22 2 -30 4 -17 2 12 2 30 0 40 -3 9 -5 -1 -4 -23z"/>
<path d="M8185 1110 c-3 -5 0 -7 9 -4 8 3 21 2 28 -2 9 -6 5 -10 -12 -14 -34
-8 -32 -35 3 -36 21 -1 27 3 27 20 0 36 -39 62 -55 36z m40 -40 c-3 -5 -13
-10 -21 -10 -8 0 -14 5 -14 10 0 6 9 10 21 10 11 0 17 -4 14 -10z"/>
<path d="M8331 1080 c1 -27 3 -29 6 -10 2 14 11 30 20 37 13 10 13 12 -6 10
-17 -1 -21 -7 -20 -37z"/>
<path d="M8390 1105 c-23 -28 17 -72 42 -47 8 8 5 9 -9 6 -12 -3 -24 -1 -27 5
-5 7 3 11 18 11 28 0 33 9 14 28 -16 16 -23 15 -38 -3z m35 -5 c3 -5 -3 -10
-15 -10 -12 0 -18 5 -15 10 3 6 10 10 15 10 5 0 12 -4 15 -10z"/>
<path d="M8461 1081 c1 -36 1 -36 8 -6 3 17 13 30 21 30 8 0 18 -13 22 -30 6
-29 6 -29 5 5 -2 31 -5 35 -29 36 -26 1 -28 -2 -27 -35z"/>
<path d="M8630 1105 c-23 -28 17 -72 42 -47 8 8 5 9 -9 6 -12 -3 -24 -1 -27 5
-5 7 3 11 18 11 28 0 33 9 14 28 -16 16 -23 15 -38 -3z m35 -5 c3 -5 -3 -10
-15 -10 -12 0 -18 5 -15 10 3 6 10 10 15 10 5 0 12 -4 15 -10z"/>
<path d="M8701 1080 c1 -27 3 -29 6 -10 2 14 11 30 20 37 13 10 13 12 -6 10
-17 -1 -21 -7 -20 -37z"/>
<path d="M8200 635 c0 -16 -4 -23 -13 -19 -8 3 -20 -2 -27 -11 -18 -21 -2 -50
29 -51 19 -1 21 4 21 52 0 30 -2 54 -5 54 -3 0 -5 -11 -5 -25z m-3 -41 c8 -21
-13 -42 -28 -27 -13 13 -5 43 11 43 6 0 13 -7 17 -16z"/>
<path d="M8311 609 c-1 -52 1 -56 20 -55 31 1 47 30 29 51 -7 9 -19 14 -26 11
-8 -3 -14 5 -17 22 -2 15 -5 2 -6 -29z m46 -15 c8 -21 -13 -42 -28 -27 -13 13
-5 43 11 43 6 0 13 -7 17 -16z"/>
<path d="M8043 633 c-23 -9 -14 -31 18 -42 35 -12 30 -35 -7 -28 -13 2 -21 0
-18 -4 8 -13 38 -11 52 3 18 18 15 25 -19 37 -35 12 -30 35 7 28 13 -2 21 0
18 4 -6 10 -31 11 -51 2z"/>
<path d="M8123 585 c0 -22 2 -30 4 -17 2 12 2 30 0 40 -3 9 -5 -1 -4 -23z"/>
<path d="M8240 605 c-23 -28 17 -72 42 -47 8 8 5 9 -9 6 -12 -3 -24 -1 -27 5
-5 7 3 11 18 11 28 0 33 9 14 28 -16 16 -23 15 -38 -3z m35 -5 c3 -5 -3 -10
-15 -10 -12 0 -18 5 -15 10 3 6 10 10 15 10 5 0 12 -4 15 -10z"/>
<path d="M8395 610 c-3 -5 0 -7 9 -4 8 3 21 2 28 -2 9 -6 5 -10 -12 -14 -34
-8 -32 -35 3 -36 21 -1 27 3 27 20 0 36 -39 62 -55 36z m40 -40 c-3 -5 -13
-10 -21 -10 -8 0 -14 5 -14 10 0 6 9 10 21 10 11 0 17 -4 14 -10z"/>
<path d="M8471 580 c1 -27 3 -29 6 -10 2 14 11 30 20 37 13 10 13 12 -6 10
-17 -1 -21 -7 -20 -37z"/>
</g>
</svg>
